{"accessors":[{"bufferView":0,"componentType":5126,"count":55389,"max":[0.06219926476478577,0.06689992547035217,0.17055946588516235],"min":[-0.06219926103949547,-0.06689992547035217,-0.17055946588516235],"type":"VEC3"},{"bufferView":1,"componentType":5126,"count":55389,"type":"VEC3"},{"bufferView":2,"componentType":5125,"count":299997,"type":"SCALAR"},{"bufferView":3,"componentType":5126,"count":55389,"type":"VEC2"}],"asset":{"generator":"Polycam","version":"2.0"},"bufferViews":[{"buffer":0,"byteLength":664668,"byteOffset":0},{"buffer":0,"byteLength":664668,"byteOffset":664668},{"buffer":0,"byteLength":1199988,"byteOffset":1329336},{"buffer":0,"byteLength":443112,"byteOffset":2529324}],"buffers":[{"uri":"poly_geometry.bin","byteLength":2972436}],"images":[{"uri":"textures/hero-basecolor.jpg"},{"uri":"textures/hero-normal.jpg"},{"uri":"textures/hero-occlusion.jpg"},{"uri":"textures/hero-roughness-metallic.png"}],"materials":[{"normalTexture":{"index":1,"scale":0.82},"occlusionTexture":{"index":2,"strength":0.92},"pbrMetallicRoughness":{"baseColorTexture":{"index":0},"metallicFactor":0.0,"metallicRoughnessTexture":{"index":3},"roughnessFactor":1.0},"name":"polycam-nike-shoe-v2-hero","doubleSided":false}],"meshes":[{"primitives":[{"attributes":{"NORMAL":1,"POSITION":0,"TEXCOORD_0":3},"indices":2,"material":0,"mode":4}]}],"nodes":[{"mesh":0}],"scene":0,"scenes":[{"nodes":[0]}],"textures":[{"source":0},{"source":1},{"source":2},{"source":3}]}