<?xml version="1.0" encoding="UTF-8"?>
<svg xmlns="http://www.w3.org/2000/svg" viewBox="22 54 1206 308" fill="none">
<defs>
        <linearGradient id="ys-gold-gradient" x1="0%" y1="8%" x2="100%" y2="92%">
            <stop offset="0%" stop-color="#F4DD9A" />
            <stop offset="44%" stop-color="#E6BA59" />
            <stop offset="100%" stop-color="#B37A1E" />
        </linearGradient>
    </defs>
<path d="M 300.99 296.96 A 151.00 151.00 0 1 1 300.99 111.04" stroke="#F8F6F2" stroke-width="18" stroke-linecap="round" />
<path d="M 283.12 288.85 A 132.00 132.00 0 1 1 283.12 119.15" stroke="#F8F6F2" stroke-width="7" stroke-linecap="round" />
<path d="M 98 124 L 186 126 L 176 242 L 86 249 Z" fill="#F8F6F2" />
<path d="M 86 126 L 61 136 L 66 230 L 86 249 Z" fill="#F8F6F2" opacity="0.86" />
<path d="M 111 124 C 111 86 124 66 147 66 C 170 66 182 86 182 124" stroke="#F8F6F2" stroke-width="9" stroke-linecap="round" />
<path d="M 125 124 C 125 98 133 82 147 82 C 161 82 169 98 169 124" stroke="#F8F6F2" stroke-width="5" stroke-linecap="round" opacity="0.88" />
<circle cx="110" cy="124" r="9" fill="transparent" stroke="#F8F6F2" stroke-width="4" />
<circle cx="170" cy="124" r="9" fill="transparent" stroke="#F8F6F2" stroke-width="4" />
<path d="M470.55078125 118.587890625 426.8564453125 203.7080078125V262.0H406.7353515625V203.7080078125L363.041015625 118.587890625H385.4306640625L416.7958984375 183.291015625L448.1611328125 118.587890625Z M517.5712890625 263.4794921875Q503.9599609375 263.4794921875 492.86376953125 259.48486328125Q481.767578125 255.490234375 472.9892578125 247.5009765625L484.923828125 232.8046875Q493.3076171875 239.1171875 501.44482421875 242.2734375Q509.58203125 245.4296875 517.5712890625 245.4296875Q529.505859375 245.4296875 535.47314453125 241.73095703125Q541.4404296875 238.0322265625 541.4404296875 230.634765625Q541.4404296875 224.9140625 537.44580078125 222.546875Q533.451171875 220.1796875 526.99072265625 219.43994140625Q520.5302734375 218.7001953125 513.1328125 218.20703125Q506.9189453125 217.7138671875 500.8037109375 216.67822265625Q494.6884765625 215.642578125 489.658203125 212.93017578125Q484.6279296875 210.2177734375 481.61962890625 204.8916015625Q478.611328125 199.5654296875 478.611328125 190.58984375Q478.611328125 174.3154296875 488.5732421875 166.2275390625Q498.53515625 158.1396484375 518.26171875 158.1396484375Q530.294921875 158.1396484375 540.6513671875 161.39453125Q551.0078125 164.6494140625 560.08203125 171.3564453125L547.9501953125 186.052734375Q540.2568359375 181.12109375 532.81005859375 178.6552734375Q525.36328125 176.189453125 518.26171875 176.189453125Q508.00390625 176.189453125 502.875 179.69091796875Q497.74609375 183.1923828125 497.74609375 190.1953125Q497.74609375 194.8310546875 501.296875 196.85302734375Q504.84765625 198.875 510.6669921875 199.466796875Q516.486328125 200.05859375 523.193359375 200.5517578125Q529.6044921875 200.9462890625 536.16357421875 201.98193359375Q542.72265625 203.017578125 548.24609375 205.9765625Q553.76953125 208.935546875 557.123046875 214.7548828125Q560.4765625 220.57421875 560.4765625 230.634765625Q560.4765625 247.1064453125 549.77490234375 255.29296875Q539.0732421875 263.4794921875 517.5712890625 263.4794921875Z M641.919921875 262.0V197.099609375Q641.919921875 187.0390625 636.54443359375 181.46630859375Q631.1689453125 175.8935546875 621.3056640625 175.8935546875Q615.2890625 175.8935546875 609.42041015625 177.71826171875Q603.5517578125 179.54296875 598.916015625 182.9951171875L584.2197265625 172.9345703125Q590.0390625 165.931640625 599.55712890625 162.03564453125Q609.0751953125 158.1396484375 620.7138671875 158.1396484375Q639.947265625 158.1396484375 650.5009765625 168.1015625Q661.0546875 178.0634765625 661.0546875 196.2119140625V262.0ZM616.8671875 263.4794921875Q598.0283203125 263.4794921875 588.60888671875 255.6875Q579.189453125 247.8955078125 579.189453125 231.818359375Q579.189453125 216.5302734375 587.81982421875 208.98486328125Q596.4501953125 201.439453125 613.7109375 201.439453125H642.8076171875L644.1884765625 217.615234375H613.8095703125Q606.017578125 217.615234375 602.072265625 221.11669921875Q598.126953125 224.6181640625 598.126953125 231.818359375Q598.126953125 239.6103515625 603.3544921875 243.3583984375Q608.58203125 247.1064453125 619.037109375 247.1064453125Q630.478515625 247.1064453125 636.19921875 244.640625Q641.919921875 242.1748046875 641.919921875 236.947265625L643.9912109375 251.34765625Q641.328125 255.490234375 637.3828125 258.1533203125Q633.4375 260.81640625 628.35791015625 262.14794921875Q623.2783203125 263.4794921875 616.8671875 263.4794921875Z M735.4951171875 263.4794921875Q725.927734375 263.4794921875 718.826171875 258.89306640625Q711.724609375 254.306640625 708.37109375 245.9228515625L709.751953125 224.51953125Q709.751953125 231.1279296875 712.119140625 235.763671875Q714.486328125 240.3994140625 718.97412109375 242.865234375Q723.4619140625 245.3310546875 729.873046875 245.3310546875Q739.8349609375 245.3310546875 745.30908203125 239.26513671875Q750.783203125 233.19921875 750.783203125 222.15234375V199.9599609375Q750.783203125 188.7158203125 745.30908203125 182.501953125Q739.8349609375 176.2880859375 729.873046875 176.2880859375Q723.4619140625 176.2880859375 718.97412109375 178.6552734375Q714.486328125 181.0224609375 712.119140625 185.5595703125Q709.751953125 190.0966796875 709.751953125 196.6064453125L707.6806640625 176.8798828125Q712.31640625 167.904296875 719.8125 163.02197265625Q727.30859375 158.1396484375 736.4814453125 158.1396484375Q752.953125 158.1396484375 761.9287109375 169.03857421875Q770.904296875 179.9375 770.904296875 199.861328125V222.15234375Q770.904296875 241.7802734375 761.6328125 252.6298828125Q752.361328125 263.4794921875 735.4951171875 263.4794921875ZM689.630859375 262.0V118.587890625H709.751953125V262.0Z M839.4267578125 263.4794921875Q818.0234375 263.4794921875 806.2861328125 251.544921875Q794.548828125 239.6103515625 794.548828125 217.615234375V206.0751953125Q794.548828125 183.1923828125 805.84228515625 170.666015625Q817.1357421875 158.1396484375 837.6513671875 158.1396484375Q856.9833984375 158.1396484375 867.58642578125 172.3427734375Q878.189453125 186.5458984375 878.189453125 212.1904296875V218.8974609375H809.146484375V202.7216796875H859.0546875Q858.1669921875 190.2939453125 852.59423828125 183.291015625Q847.021484375 176.2880859375 837.6513671875 176.2880859375Q826.30859375 176.2880859375 819.99609375 183.7841796875Q813.68359375 191.2802734375 813.68359375 204.990234375V218.009765625Q813.68359375 230.7333984375 820.43994140625 237.5390625Q827.1962890625 244.3447265625 839.4267578125 244.3447265625Q845.5419921875 244.3447265625 851.55859375 241.87890625Q857.5751953125 239.4130859375 862.3095703125 234.974609375L875.5263671875 248.19140625Q867.931640625 255.490234375 858.462890625 259.48486328125Q848.994140625 263.4794921875 839.4267578125 263.4794921875Z M923.927734375 118.587890625V235.56640625Q923.927734375 239.2158203125 925.55517578125 241.287109375Q927.1826171875 243.3583984375 930.1416015625 243.3583984375H939.6103515625V262.4931640625H927.7744140625Q916.431640625 262.4931640625 910.119140625 255.3916015625Q903.806640625 248.2900390625 903.806640625 235.369140625V118.587890625Z M980.4169921875 118.587890625V235.56640625Q980.4169921875 239.2158203125 982.04443359375 241.287109375Q983.671875 243.3583984375 986.630859375 243.3583984375H996.099609375V262.4931640625H984.263671875Q972.9208984375 262.4931640625 966.6083984375 255.3916015625Q960.2958984375 248.2900390625 960.2958984375 235.369140625V118.587890625Z M1058.7041015625 263.4794921875Q1037.30078125 263.4794921875 1025.5634765625 251.544921875Q1013.826171875 239.6103515625 1013.826171875 217.615234375V206.0751953125Q1013.826171875 183.1923828125 1025.11962890625 170.666015625Q1036.4130859375 158.1396484375 1056.9287109375 158.1396484375Q1076.2607421875 158.1396484375 1086.86376953125 172.3427734375Q1097.466796875 186.5458984375 1097.466796875 212.1904296875V218.8974609375H1028.423828125V202.7216796875H1078.33203125Q1077.4443359375 190.2939453125 1071.87158203125 183.291015625Q1066.298828125 176.2880859375 1056.9287109375 176.2880859375Q1045.5859375 176.2880859375 1039.2734375 183.7841796875Q1032.9609375 191.2802734375 1032.9609375 204.990234375V218.009765625Q1032.9609375 230.7333984375 1039.71728515625 237.5390625Q1046.4736328125 244.3447265625 1058.7041015625 244.3447265625Q1064.8193359375 244.3447265625 1070.8359375 241.87890625Q1076.8525390625 239.4130859375 1081.5869140625 234.974609375L1094.8037109375 248.19140625Q1087.208984375 255.490234375 1077.740234375 259.48486328125Q1068.271484375 263.4794921875 1058.7041015625 263.4794921875Z" fill="#F8F6F2" />
<path d="M487.595947265625 315.08154296875V309.11376953125H502.853759765625Q505.591552734375 309.11376953125 507.252685546875 307.20654296875Q508.913818359375 305.29931640625 508.913818359375 302.16162109375Q508.913818359375 299.02392578125 507.252685546875 297.11669921875Q505.591552734375 295.20947265625 502.853759765625 295.20947265625H487.595947265625V289.24169921875H502.607666015625Q506.514404296875 289.24169921875 509.436767578125 290.856689453125Q512.359130859375 292.4716796875 513.97412109375 295.36328125Q515.589111328125 298.2548828125 515.589111328125 302.16162109375Q515.589111328125 306.03759765625 513.958740234375 308.944580078125Q512.328369140625 311.8515625 509.42138671875 313.466552734375Q506.514404296875 315.08154296875 502.607666015625 315.08154296875ZM484.858154296875 334.0V289.24169921875H491.133544921875V334.0ZM510.021240234375 334.0 499.777587890625 313.697265625 506.022216796875 312.2822265625 517.465576171875 334.0Z M539.425048828125 334.0V289.2724609375H545.700439453125V334.0ZM542.470458984375 334.0V328.0322265625H568.156494140625V334.0ZM542.470458984375 314.77392578125V308.80615234375H564.772705078125V314.77392578125ZM542.470458984375 295.240234375V289.2724609375H568.156494140625V295.240234375Z M597.068115234375 334.0V292.93310546875H603.343505859375V334.0ZM584.425048828125 295.240234375V289.2724609375H615.986572265625V295.240234375Z M630.101806640625 334.0 646.590087890625 289.2724609375H651.942626953125L668.430908203125 334.0H661.663330078125L649.266357421875 297.91650390625L636.869384765625 334.0ZM637.699951171875 324.18701171875V318.21923828125H661.232666015625V324.18701171875Z M694.973876953125 289.2724609375V334.0H688.698486328125V289.2724609375Z M719.548095703125 334.0V289.2724609375H725.823486328125V334.0ZM722.685791015625 334.0V328.0322265625H748.279541015625V334.0Z M813.024169921875 334.46142578125Q809.763427734375 334.46142578125 806.88720703125 333.84619140625Q804.010986328125 333.23095703125 801.50390625 332.00048828125Q798.996826171875 330.77001953125 796.812744140625 328.92431640625L800.719482421875 324.12548828125Q803.272705078125 326.34033203125 806.348876953125 327.44775390625Q809.425048828125 328.55517578125 813.024169921875 328.55517578125Q817.884521484375 328.55517578125 820.560791015625 326.740234375Q823.237060546875 324.92529296875 823.237060546875 321.66455078125V321.6337890625Q823.237060546875 319.08056640625 821.883544921875 317.72705078125Q820.530029296875 316.37353515625 818.33056640625 315.712158203125Q816.131103515625 315.05078125 813.516357421875 314.6201171875Q810.993896484375 314.189453125 808.42529296875 313.60498046875Q805.856689453125 313.0205078125 803.703369140625 311.774658203125Q801.550048828125 310.52880859375 800.24267578125 308.19091796875Q798.935302734375 305.85302734375 798.935302734375 301.9462890625V301.91552734375Q798.935302734375 295.6708984375 803.088134765625 292.240966796875Q807.240966796875 288.81103515625 814.808349609375 288.81103515625Q818.407470703125 288.81103515625 821.852783203125 289.964599609375Q825.298095703125 291.1181640625 828.558837890625 293.48681640625L824.990478515625 298.47021484375Q822.437255859375 296.56298828125 819.8994140625 295.64013671875Q817.361572265625 294.71728515625 814.808349609375 294.71728515625Q810.224853515625 294.71728515625 807.68701171875 296.547607421875Q805.149169921875 298.3779296875 805.149169921875 301.73095703125V301.76171875Q805.149169921875 304.2841796875 806.625732421875 305.60693359375Q808.102294921875 306.9296875 810.486328125 307.560302734375Q812.870361328125 308.19091796875 815.608154296875 308.74462890625Q818.069091796875 309.23681640625 820.530029296875 309.928955078125Q822.990966796875 310.62109375 825.005859375 311.928466796875Q827.020751953125 313.23583984375 828.23583984375 315.51220703125Q829.450927734375 317.78857421875 829.450927734375 321.44921875V321.5107421875Q829.450927734375 327.69384765625 825.144287109375 331.07763671875Q820.837646484375 334.46142578125 813.024169921875 334.46142578125Z M877.281005859375 334.0V289.2724609375H883.556396484375V334.0ZM851.871826171875 334.0V289.2724609375H858.147216796875V334.0ZM855.778564453125 314.95849609375V308.99072265625H880.603271484375V314.95849609375Z M922.927001953125 334.46142578125Q918.189697265625 334.46142578125 914.652099609375 332.415771484375Q911.114501953125 330.3701171875 909.1611328125 326.64794921875Q907.207763671875 322.92578125 907.207763671875 317.97314453125V305.29931640625Q907.207763671875 300.31591796875 909.1611328125 296.609130859375Q911.114501953125 292.90234375 914.652099609375 290.856689453125Q918.189697265625 288.81103515625 922.927001953125 288.81103515625Q927.664306640625 288.81103515625 931.201904296875 290.856689453125Q934.739501953125 292.90234375 936.69287109375 296.609130859375Q938.646240234375 300.31591796875 938.646240234375 305.29931640625V317.97314453125Q938.646240234375 322.92578125 936.69287109375 326.64794921875Q934.739501953125 330.3701171875 931.201904296875 332.415771484375Q927.664306640625 334.46142578125 922.927001953125 334.46142578125ZM922.927001953125 328.2783203125Q927.141357421875 328.2783203125 929.67919921875 325.509765625Q932.217041015625 322.7412109375 932.217041015625 318.1884765625V305.083984375Q932.217041015625 300.50048828125 929.67919921875 297.747314453125Q927.141357421875 294.994140625 922.927001953125 294.994140625Q918.743408203125 294.994140625 916.190185546875 297.747314453125Q913.636962890625 300.50048828125 913.636962890625 305.083984375V318.1884765625Q913.636962890625 322.7412109375 916.190185546875 325.509765625Q918.743408203125 328.2783203125 922.927001953125 328.2783203125Z M965.527587890625 316.650390625V310.6826171875H979.831787109375Q982.907958984375 310.6826171875 984.76904296875 308.56005859375Q986.630126953125 306.4375 986.630126953125 302.9921875Q986.630126953125 299.4853515625 984.76904296875 297.36279296875Q982.907958984375 295.240234375 979.831787109375 295.240234375H965.527587890625V289.2724609375H979.616455078125Q983.677001953125 289.2724609375 986.691650390625 290.979736328125Q989.706298828125 292.68701171875 991.3828125 295.76318359375Q993.059326171875 298.83935546875 993.059326171875 302.9921875Q993.059326171875 307.1142578125 991.3828125 310.1904296875Q989.706298828125 313.2666015625 986.691650390625 314.95849609375Q983.677001953125 316.650390625 979.616455078125 316.650390625ZM962.297607421875 334.0V289.2724609375H968.572998046875V334.0Z" fill="#F8F6F2" />
</svg>
